<svg width="26" height="26" viewBox="0 0 26 26" fill="none" xmlns="http://www.w3.org/2000/svg">
<path d="M2.18232 18.94C1.03832 14.364 0.466317 12.0773 1.66765 10.5387C2.86765 9 5.22765 9 9.94365 9H16.117C20.8343 9 23.1916 9 24.393 10.5387C25.5943 12.076 25.0223 14.3653 23.8783 18.94C23.1503 21.8507 22.7876 23.3053 21.7023 24.1533C20.617 25 19.117 25 16.117 25H9.94365C6.94365 25 5.44365 25 4.35832 24.1533C3.27298 23.3053 2.90898 21.8507 2.18232 18.94Z" stroke="#590209" stroke-width="1.5"/>
<path opacity="0.5" d="M23.0303 9.66667L22.0836 6.19333C21.7183 4.85333 21.5356 4.184 21.1609 3.67867C20.7874 3.17662 20.28 2.78987 19.6969 2.56267C19.1103 2.33333 18.4169 2.33333 17.0303 2.33333M3.03027 9.66667L3.97694 6.19333C4.34227 4.85333 4.52494 4.184 4.89961 3.67867C5.27318 3.17662 5.78053 2.78987 6.36361 2.56267C6.95027 2.33333 7.64361 2.33333 9.03027 2.33333" stroke="#590209" stroke-width="1.5"/>
<path d="M9.03027 2.33333C9.03027 1.97971 9.17075 1.64057 9.4208 1.39052C9.67085 1.14048 10.01 1 10.3636 1H15.6969C16.0506 1 16.3897 1.14048 16.6397 1.39052C16.8898 1.64057 17.0303 1.97971 17.0303 2.33333C17.0303 2.68696 16.8898 3.02609 16.6397 3.27614C16.3897 3.52619 16.0506 3.66667 15.6969 3.66667H10.3636C10.01 3.66667 9.67085 3.52619 9.4208 3.27614C9.17075 3.02609 9.03027 2.68696 9.03027 2.33333Z" stroke="#590209" stroke-width="1.5"/>
</svg>
