<svg width="162" height="35" viewBox="0 0 162 35" fill="none" xmlns="http://www.w3.org/2000/svg">
<path d="M3.8301 19.342C3.8301 24.4792 7.50795 28.7575 12.3742 29.6873C13.3418 31.4632 14.5307 33.0496 15.8941 34.3902C15.391 34.4435 14.8801 34.4709 14.3629 34.4709C6.43047 34.4709 0 28.0404 0 20.108V0H3.8301V19.342Z" fill="#590209"/>
<path fill-rule="evenodd" clip-rule="evenodd" d="M45.9612 17.2354C45.9612 26.7543 38.2446 34.4709 28.7257 34.4709C19.2069 34.4709 11.4903 26.7543 11.4903 17.2354C11.4903 7.71657 19.2069 0 28.7257 0C38.2446 0 45.9612 7.71657 45.9612 17.2354ZM21.0655 13.4053H34.4709V17.2354C34.4709 18.2931 33.6135 19.1505 32.5558 19.1505H22.9806C21.9229 19.1505 21.0655 18.2931 21.0655 17.2354V13.4053ZM25.8531 22.9806C26.382 22.9806 26.8107 22.5519 26.8107 22.0231C26.8107 21.4942 26.382 21.0655 25.8531 21.0655C25.3243 21.0655 24.8956 21.4942 24.8956 22.0231C24.8956 22.5519 25.3243 22.9806 25.8531 22.9806ZM30.6408 22.0231C30.6408 22.5519 30.2121 22.9806 29.6832 22.9806C29.1544 22.9806 28.7257 22.5519 28.7257 22.0231C28.7257 21.4942 29.1544 21.0655 29.6832 21.0655C30.2121 21.0655 30.6408 21.4942 30.6408 22.0231Z" fill="#590209"/>
<path d="M75.6468 8.6192C75.5516 8.6736 75.4428 8.7212 75.3204 8.762C75.2116 8.8028 75.1028 8.8504 74.994 8.9048C74.6132 9.068 74.2596 9.2448 73.9332 9.4352C73.6204 9.612 73.464 9.8636 73.464 10.19V11.3528C73.464 11.8288 73.464 12.3184 73.464 12.8216C73.464 13.3112 73.4708 13.8008 73.4844 14.2904C73.4844 14.7664 73.4844 15.2356 73.4844 15.698C73.498 16.1604 73.5048 16.6296 73.5048 17.1056C73.5048 18.2616 73.4844 19.3904 73.4436 20.492C73.4028 21.2128 73.3076 21.886 73.158 22.5116C73.0084 23.1236 72.7704 23.6676 72.444 24.1436C72.1176 24.6196 71.6892 25.0208 71.1588 25.3472C70.6284 25.6736 69.9552 25.9048 69.1392 26.0408C68.8536 26.0952 68.5476 26.1292 68.2212 26.1428C67.8948 26.17 67.5752 26.1836 67.2624 26.1836C66.8272 26.1836 66.392 26.1632 65.9568 26.1224C65.5352 26.0816 65.134 26.0204 64.7532 25.9388C63.7468 25.7212 62.9376 25.3676 62.3256 24.878C61.7136 24.3884 61.2376 23.8104 60.8976 23.144C60.5712 22.4776 60.34 21.75 60.204 20.9612C60.0816 20.1588 60.0068 19.336 59.9796 18.4928C59.9524 17.908 59.9388 17.2892 59.9388 16.6364C59.9252 15.9836 59.9184 15.3648 59.9184 14.78C59.9184 14.2632 59.9252 13.76 59.9388 13.2704C59.9388 12.7672 59.9388 12.2572 59.9388 11.7404V9.3128C59.6668 9.1904 59.3948 9.068 59.1228 8.9456C58.8508 8.8232 58.5788 8.7076 58.3068 8.5988C58.2252 8.5716 58.198 8.5172 58.2252 8.4356C58.2388 8.3404 58.2864 8.2928 58.368 8.2928H64.4064C64.488 8.2928 64.5356 8.3404 64.5492 8.4356C64.5764 8.5172 64.5492 8.5716 64.4676 8.5988L62.8152 9.374C62.8152 9.8364 62.8084 10.2988 62.7948 10.7612C62.7948 11.2236 62.7948 11.6928 62.7948 12.1688C62.7948 12.5632 62.788 12.9644 62.7744 13.3724C62.7744 13.7804 62.7744 14.1816 62.7744 14.576C62.7744 15.9768 62.7948 17.3504 62.8356 18.6968C62.8492 19.3088 62.8968 19.9276 62.9784 20.5532C63.0736 21.1788 63.2096 21.7772 63.3864 22.3484C63.5768 22.9196 63.8148 23.4364 64.1004 23.8988C64.3996 24.3612 64.7736 24.7284 65.2224 25.0004C65.5488 25.1908 65.9092 25.3336 66.3036 25.4288C66.698 25.5104 67.0992 25.5512 67.5072 25.5512C67.7656 25.5512 68.0308 25.5376 68.3028 25.5104C68.5748 25.4696 68.84 25.4288 69.0984 25.388C69.7648 25.252 70.3224 25.0344 70.7712 24.7352C71.22 24.436 71.5804 24.0756 71.8524 23.654C72.138 23.2324 72.342 22.7564 72.4644 22.226C72.6004 21.682 72.682 21.104 72.7092 20.492C72.7228 20.0568 72.7296 19.574 72.7296 19.0436C72.7432 18.5132 72.75 18.0236 72.75 17.5748C72.75 17.0988 72.7432 16.616 72.7296 16.1264C72.7296 15.6232 72.7296 15.12 72.7296 14.6168C72.716 14.1544 72.7092 13.6308 72.7092 13.046C72.7092 12.4612 72.7092 11.9376 72.7092 11.4752V10.2104C72.7092 9.8976 72.5732 9.6528 72.3012 9.476C72.0292 9.2856 71.73 9.0952 71.4036 8.9048L70.914 8.6192C70.846 8.592 70.8188 8.5376 70.8324 8.456C70.8596 8.3744 70.914 8.3336 70.9956 8.3336H75.5652L75.6468 8.6192ZM82.9162 26.0204C82.8346 26.0204 82.7802 25.9796 82.753 25.898C82.7394 25.8028 82.7734 25.7416 82.855 25.7144L84.4666 25.0004C84.4802 24.334 84.487 23.6744 84.487 23.0216C84.5006 22.3552 84.5074 21.6752 84.5074 20.9816C84.5074 20.8864 84.5074 20.7912 84.5074 20.696C84.521 20.5872 84.5278 20.4784 84.5278 20.3696C84.5278 20.22 84.5278 20.0636 84.5278 19.9004C84.5414 19.7372 84.5482 19.5672 84.5482 19.3904C84.5482 18.9824 84.5346 18.5676 84.5074 18.146C84.4802 17.7244 84.419 17.3232 84.3238 16.9424C84.2286 16.5616 84.0926 16.2284 83.9158 15.9428C83.739 15.6436 83.501 15.4192 83.2018 15.2696H83.2222C82.9638 15.1608 82.685 15.1064 82.3858 15.1064C81.937 15.1064 81.5154 15.2288 81.121 15.4736C80.917 15.596 80.7266 15.7524 80.5498 15.9428C80.3866 16.1196 80.237 16.3168 80.101 16.5344C79.9514 16.7792 79.829 17.0852 79.7338 17.4524C79.6522 17.8196 79.5774 18.1936 79.5094 18.5744C79.5094 19.1456 79.5094 19.6012 79.5094 19.9412C79.5094 20.2676 79.5094 20.5804 79.5094 20.8796C79.5094 21.1652 79.5026 21.4848 79.489 21.8384C79.489 22.1784 79.489 22.6408 79.489 23.2256V24.9392C79.7746 25.0752 80.0534 25.2112 80.3254 25.3472C80.611 25.4832 80.8898 25.6056 81.1618 25.7144C81.2434 25.7416 81.2706 25.8028 81.2434 25.898C81.2298 25.9796 81.1822 26.0204 81.1006 26.0204H75.409C75.3138 26.0204 75.2594 25.9796 75.2458 25.898C75.2322 25.8028 75.2662 25.7416 75.3478 25.7144L76.9798 25.0004V20.9408C76.9798 20.7368 76.9798 20.526 76.9798 20.3084C76.9798 20.0772 76.9798 19.812 76.9798 19.5128C76.9798 19.2 76.9798 18.826 76.9798 18.3908C76.9934 17.9556 77.0002 17.4184 77.0002 16.7792C76.973 16.5344 76.8846 16.3168 76.735 16.1264C76.599 15.936 76.4358 15.766 76.2454 15.6164V15.6368C76.0958 15.5416 75.953 15.4192 75.817 15.2696C75.7626 15.2152 75.749 15.1608 75.7762 15.1064C75.8034 15.0384 75.851 14.9976 75.919 14.984L80.3254 14.4332C80.3934 14.4196 80.441 14.4468 80.4682 14.5148C80.509 14.5692 80.509 14.6304 80.4682 14.6984L79.9378 15.4124C80.1826 15.1948 80.4682 15.018 80.7946 14.882C81.1482 14.7052 81.495 14.5896 81.835 14.5352C82.1886 14.4808 82.5286 14.4536 82.855 14.4536C82.9638 14.4536 83.0726 14.4536 83.1814 14.4536C83.3038 14.4536 83.4194 14.4604 83.5282 14.474H83.5078C84.3646 14.5148 85.031 14.712 85.507 15.0656C85.983 15.4056 86.3366 15.8612 86.5678 16.4324C86.799 16.99 86.935 17.6428 86.9758 18.3908C87.0302 19.1388 87.0574 19.9412 87.0574 20.798C87.0574 21.1516 87.0506 21.5052 87.037 21.8588C87.037 22.2124 87.0302 22.566 87.0166 22.9196C87.003 23.2732 86.9962 23.6132 86.9962 23.9396C86.9962 24.2524 86.9962 24.5856 86.9962 24.9392C87.2818 25.0752 87.5606 25.2112 87.8326 25.3472C88.1046 25.4832 88.3766 25.6056 88.6486 25.7144C88.7302 25.7416 88.7574 25.8028 88.7302 25.898C88.7166 25.9796 88.669 26.0204 88.5874 26.0204H82.9162ZM91.2624 25.0004V20.9408C91.2624 20.7368 91.2624 20.526 91.2624 20.3084C91.2624 20.0772 91.2624 19.812 91.2624 19.5128C91.2624 19.2 91.2624 18.826 91.2624 18.3908C91.276 17.9556 91.2828 17.4184 91.2828 16.7792C91.2556 16.4392 91.1264 16.1468 90.8952 15.902C90.6776 15.6572 90.4328 15.4532 90.1608 15.29C90.0928 15.2492 90.0656 15.1948 90.0792 15.1268C90.0928 15.0452 90.1404 14.9976 90.222 14.984L90.6708 14.9228C91.1604 14.8412 91.6568 14.7664 92.16 14.6984C92.6632 14.6168 93.1528 14.542 93.6288 14.474C93.7512 14.4468 93.8124 14.5012 93.8124 14.6372V17.6768C93.8124 18.9144 93.8124 20.1248 93.8124 21.308C93.8124 22.4912 93.8056 23.7016 93.792 24.9392C94.064 25.0752 94.336 25.2112 94.608 25.3472C94.8936 25.4832 95.1792 25.6056 95.4648 25.7144C95.5328 25.7416 95.56 25.8028 95.5464 25.898C95.5328 25.9796 95.4852 26.0204 95.4036 26.0204H89.6916C89.61 26.0204 89.5624 25.9796 89.5488 25.898C89.5352 25.8028 89.5624 25.7416 89.6304 25.7144L91.2624 25.0004ZM92.3436 13.0664C91.99 13.0664 91.6772 12.9372 91.4052 12.6788C91.1332 12.4204 90.9972 12.1076 90.9972 11.7404C90.9972 11.3732 91.1264 11.0604 91.3848 10.802C91.6432 10.53 91.956 10.394 92.3232 10.394C92.704 10.3804 93.0168 10.5028 93.2616 10.7612C93.52 11.0196 93.656 11.3324 93.6696 11.6996C93.6696 12.0668 93.5404 12.3864 93.282 12.6584C93.0236 12.9168 92.7108 13.0528 92.3436 13.0664ZM105.39 22.8788C105.499 22.906 105.54 22.974 105.512 23.0828C105.363 23.5996 105.145 24.0484 104.86 24.4292C104.574 24.7964 104.241 25.1024 103.86 25.3472C103.479 25.5784 103.064 25.7552 102.616 25.8776C102.167 25.9864 101.711 26.0408 101.249 26.0408C100.31 26.0408 99.4876 25.8844 98.7804 25.5716C98.0732 25.2588 97.4816 24.844 97.0056 24.3272C96.5432 23.7968 96.1896 23.1984 95.9448 22.532C95.7136 21.8656 95.598 21.1788 95.598 20.4716C95.598 19.8732 95.6796 19.2816 95.8428 18.6968C96.0196 18.0984 96.278 17.5476 96.618 17.0444C96.9716 16.5276 97.4 16.0788 97.9032 15.698C98.42 15.3036 99.0184 15.0044 99.6984 14.8004C100.31 14.61 100.916 14.5148 101.514 14.5148C102.085 14.5148 102.67 14.61 103.268 14.8004C103.568 14.8956 103.874 15.0316 104.186 15.2084C104.499 15.3852 104.751 15.596 104.941 15.8408C105.172 16.1536 105.288 16.4324 105.288 16.6772C105.288 16.9492 105.193 17.1736 105.002 17.3504C104.812 17.5136 104.601 17.5952 104.37 17.5952C104.166 17.5952 103.955 17.5272 103.738 17.3912C103.52 17.2416 103.33 16.99 103.166 16.6364L103.044 16.3508C102.99 16.242 102.942 16.14 102.901 16.0448C102.874 15.936 102.792 15.8 102.656 15.6368C102.52 15.4464 102.357 15.3172 102.167 15.2492C101.99 15.1676 101.8 15.1268 101.596 15.1268C101.324 15.1268 101.052 15.1812 100.78 15.29C100.521 15.3988 100.283 15.5212 100.066 15.6572C99.4808 16.0924 99.0388 16.7112 98.7396 17.5136C98.4404 18.316 98.2908 19.1592 98.2908 20.0432C98.2908 20.628 98.352 21.206 98.4744 21.7772C98.6104 22.3484 98.8076 22.872 99.066 23.348C99.3244 23.8104 99.6372 24.2048 100.004 24.5312C100.372 24.8576 100.8 25.0616 101.29 25.1432C101.657 25.1976 102.031 25.184 102.412 25.1024C102.806 25.0072 103.166 24.8644 103.493 24.674C103.833 24.4836 104.125 24.2388 104.37 23.9396C104.628 23.6404 104.812 23.3004 104.921 22.9196C104.948 22.8108 105.016 22.77 105.125 22.7972L105.39 22.8788ZM107.917 25.0004V17.534C107.917 16.2556 107.917 14.9976 107.917 13.76C107.917 12.5088 107.924 11.244 107.937 9.9656C107.91 9.7208 107.829 9.51 107.693 9.3332C107.557 9.1428 107.393 8.9728 107.203 8.8232L106.795 8.456C106.727 8.4016 106.707 8.3472 106.734 8.2928C106.761 8.2248 106.809 8.184 106.877 8.1704L111.283 7.6196C111.365 7.606 111.419 7.6332 111.446 7.7012C111.473 7.7556 111.467 7.8168 111.426 7.8848L111.181 8.2112H111.201C111.011 8.4832 110.841 8.7416 110.691 8.9864C110.555 9.2176 110.487 9.4896 110.487 9.8024C110.474 11.0808 110.467 12.3524 110.467 13.6172C110.467 14.882 110.467 16.1536 110.467 17.432C110.467 18.7104 110.46 19.9616 110.447 21.1856C110.447 22.4096 110.447 23.6608 110.447 24.9392C110.719 25.0752 110.991 25.2112 111.263 25.3472C111.548 25.4832 111.834 25.6056 112.119 25.7144C112.187 25.7416 112.215 25.8028 112.201 25.898C112.187 25.9796 112.14 26.0204 112.058 26.0204H106.346C106.265 26.0204 106.217 25.9796 106.203 25.898C106.19 25.8028 106.217 25.7416 106.285 25.7144L107.917 25.0004ZM114.83 25.0004V20.9408C114.83 20.7368 114.83 20.526 114.83 20.3084C114.83 20.0772 114.83 19.812 114.83 19.5128C114.83 19.2 114.83 18.826 114.83 18.3908C114.844 17.9556 114.85 17.4184 114.85 16.7792C114.823 16.4392 114.694 16.1468 114.463 15.902C114.245 15.6572 114 15.4532 113.728 15.29C113.66 15.2492 113.633 15.1948 113.647 15.1268C113.66 15.0452 113.708 14.9976 113.79 14.984L114.238 14.9228C114.728 14.8412 115.224 14.7664 115.728 14.6984C116.231 14.6168 116.72 14.542 117.196 14.474C117.319 14.4468 117.38 14.5012 117.38 14.6372V17.6768C117.38 18.9144 117.38 20.1248 117.38 21.308C117.38 22.4912 117.373 23.7016 117.36 24.9392C117.632 25.0752 117.904 25.2112 118.176 25.3472C118.461 25.4832 118.747 25.6056 119.032 25.7144C119.1 25.7416 119.128 25.8028 119.114 25.898C119.1 25.9796 119.053 26.0204 118.971 26.0204H113.259C113.178 26.0204 113.13 25.9796 113.116 25.898C113.103 25.8028 113.13 25.7416 113.198 25.7144L114.83 25.0004ZM115.911 13.0664C115.558 13.0664 115.245 12.9372 114.973 12.6788C114.701 12.4204 114.565 12.1076 114.565 11.7404C114.565 11.3732 114.694 11.0604 114.952 10.802C115.211 10.53 115.524 10.394 115.891 10.394C116.272 10.3804 116.584 10.5028 116.829 10.7612C117.088 11.0196 117.224 11.3324 117.237 11.6996C117.237 12.0668 117.108 12.3864 116.85 12.6584C116.591 12.9168 116.278 13.0528 115.911 13.0664ZM127.724 29.3252V24.9596C127.329 25.3268 126.887 25.592 126.398 25.7552C125.908 25.9184 125.405 26 124.888 26C124.358 26 123.814 25.9252 123.256 25.7756C122.658 25.6124 122.134 25.354 121.685 25.0004C121.236 24.6332 120.856 24.2048 120.543 23.7152C120.23 23.2256 119.992 22.6884 119.829 22.1036C119.679 21.5188 119.604 20.9272 119.604 20.3288C119.604 19.676 119.693 19.0368 119.87 18.4112C120.06 17.7856 120.346 17.2076 120.726 16.6772C121.107 16.1468 121.59 15.698 122.175 15.3308C122.76 14.95 123.446 14.6916 124.235 14.5556C124.439 14.5284 124.643 14.508 124.847 14.4944C125.065 14.4672 125.289 14.4536 125.52 14.4536C125.874 14.4536 126.275 14.5216 126.724 14.6576C127.173 14.7936 127.574 14.9976 127.928 15.2696L130.09 15.0656C130.212 15.0656 130.274 15.12 130.274 15.2288C130.274 16.5072 130.267 17.7176 130.253 18.86C130.253 20.0024 130.253 21.1448 130.253 22.2872C130.253 23.4296 130.253 24.5652 130.253 25.694C130.253 26.8092 130.246 28.006 130.233 29.2844C130.505 29.4204 130.784 29.5428 131.069 29.6516C131.355 29.774 131.634 29.91 131.906 30.0596C131.987 30.1004 132.014 30.1548 131.987 30.2228C131.974 30.3044 131.926 30.3452 131.844 30.3452H126.153C126.071 30.3452 126.017 30.3044 125.99 30.2228C125.976 30.1412 126.01 30.0868 126.092 30.0596L127.724 29.3252ZM123.99 24.8168C124.453 25.1432 124.888 25.3064 125.296 25.3064C125.582 25.3064 125.854 25.2248 126.112 25.0616C126.384 24.8848 126.622 24.6672 126.826 24.4088C127.044 24.1368 127.227 23.8308 127.377 23.4908C127.526 23.1508 127.642 22.8176 127.724 22.4912V17.0648C127.588 16.5208 127.336 16.0584 126.969 15.6776C126.615 15.2968 126.132 15.0928 125.52 15.0656C125.33 15.052 125.133 15.0588 124.929 15.086C124.738 15.1132 124.555 15.1608 124.378 15.2288C123.984 15.3648 123.644 15.5824 123.358 15.8816C123.086 16.1808 122.855 16.5344 122.664 16.9424C122.474 17.3504 122.331 17.7992 122.236 18.2888C122.154 18.7784 122.114 19.2816 122.114 19.7984C122.114 20.3016 122.154 20.8048 122.236 21.308C122.318 21.8112 122.44 22.2872 122.603 22.736C122.766 23.1712 122.964 23.5724 123.195 23.9396C123.426 24.2932 123.691 24.5856 123.99 24.8168ZM141.396 24.6332C141.07 25.014 140.642 25.3336 140.111 25.592C139.758 25.7416 139.404 25.8504 139.05 25.9184C138.71 25.9728 138.377 26 138.051 26C137.928 26 137.813 26 137.704 26C137.595 26 137.486 25.9932 137.378 25.9796H137.398C136.541 25.9388 135.868 25.7484 135.378 25.4084C134.902 25.0548 134.549 24.5992 134.318 24.0416C134.086 23.4704 133.95 22.8108 133.91 22.0628C133.855 21.3148 133.828 20.5124 133.828 19.6556C133.828 19.3836 133.828 19.1388 133.828 18.9212C133.828 18.69 133.835 18.4588 133.848 18.2276C133.862 17.9012 133.876 17.568 133.889 17.228C133.889 16.8744 133.889 16.4936 133.889 16.0856C133.617 15.9496 133.345 15.8204 133.073 15.698C132.801 15.562 132.529 15.4328 132.257 15.3104C132.176 15.2832 132.148 15.2288 132.176 15.1472C132.189 15.052 132.23 15.0044 132.298 15.0044H136.276C136.385 15.0044 136.439 15.0588 136.439 15.1676C136.439 15.8884 136.432 16.6092 136.419 17.33C136.419 18.0372 136.412 18.758 136.398 19.4924C136.398 19.5604 136.392 19.6556 136.378 19.778C136.378 19.9004 136.378 20.0024 136.378 20.084C136.378 20.2336 136.371 20.3968 136.358 20.5736C136.358 20.7368 136.358 20.9 136.358 21.0632C136.358 21.4712 136.371 21.8928 136.398 22.328C136.426 22.7496 136.487 23.1508 136.582 23.5316C136.677 23.9124 136.813 24.2524 136.99 24.5516C137.167 24.8372 137.405 25.048 137.704 25.184C137.949 25.3064 138.214 25.3676 138.5 25.3676C138.731 25.3676 138.955 25.3336 139.173 25.2656C139.404 25.184 139.615 25.0888 139.805 24.98C140.009 24.8712 140.193 24.7216 140.356 24.5312C140.519 24.3408 140.669 24.1368 140.805 23.9192C140.954 23.6744 141.077 23.3616 141.172 22.9808C141.267 22.5864 141.342 22.2124 141.396 21.8588V16.0856L139.764 15.29C139.683 15.2492 139.649 15.188 139.662 15.1064C139.69 15.0248 139.744 14.984 139.826 14.984H145.497C145.578 14.984 145.626 15.0248 145.64 15.1064C145.667 15.188 145.64 15.2492 145.558 15.29L143.946 16.0244C143.946 16.8268 143.94 17.5952 143.926 18.3296C143.926 19.0504 143.926 19.7712 143.926 20.492C143.926 21.1992 143.926 21.92 143.926 22.6544C143.926 23.3752 143.926 24.1368 143.926 24.9392C144.198 25.0752 144.47 25.2112 144.742 25.3472C145.028 25.4832 145.306 25.6056 145.578 25.7144C145.66 25.7416 145.687 25.8028 145.66 25.898C145.646 25.9796 145.599 26.0204 145.517 26.0204H141.539C141.444 26.0204 141.396 25.966 141.396 25.8572V24.6332ZM156.291 22.8788C156.4 22.906 156.44 22.974 156.413 23.0828C156.264 23.5996 156.046 24.0484 155.76 24.4292C155.475 24.7964 155.142 25.1024 154.761 25.3472C154.394 25.5784 153.986 25.7552 153.537 25.8776C153.088 25.9864 152.626 26.0408 152.15 26.0408C151.17 26.0408 150.32 25.8912 149.6 25.592C148.892 25.2792 148.308 24.8712 147.845 24.368C147.383 23.8512 147.036 23.2664 146.805 22.6136C146.587 21.9472 146.478 21.2672 146.478 20.5736C146.478 19.9616 146.567 19.3564 146.744 18.758C146.92 18.1596 147.172 17.602 147.498 17.0852C147.838 16.5684 148.246 16.106 148.722 15.698C149.212 15.29 149.763 14.984 150.375 14.78C150.878 14.6168 151.415 14.5352 151.986 14.5352C152.218 14.5352 152.435 14.5488 152.639 14.576C152.843 14.5896 153.04 14.6304 153.231 14.6984C153.652 14.8344 154.054 15.0316 154.434 15.29C154.815 15.5484 155.148 15.8544 155.434 16.208C155.72 16.548 155.937 16.9356 156.087 17.3708C156.25 17.806 156.325 18.2616 156.311 18.7376C156.311 18.8328 156.264 18.8804 156.168 18.8804L149.355 19.0028C149.273 19.4924 149.232 19.9684 149.232 20.4308C149.232 20.9884 149.287 21.5324 149.396 22.0628C149.518 22.5796 149.702 23.0556 149.946 23.4908C150.191 23.9124 150.497 24.2728 150.864 24.572C151.245 24.8712 151.694 25.0616 152.211 25.1432C152.578 25.1976 152.952 25.184 153.333 25.1024C153.714 25.0072 154.067 24.8644 154.394 24.674C154.734 24.4836 155.026 24.2388 155.271 23.9396C155.529 23.6404 155.713 23.3004 155.822 22.9196C155.849 22.8108 155.917 22.77 156.026 22.7972L156.291 22.8788ZM150.905 15.5756C150.592 15.834 150.314 16.208 150.069 16.6976C149.824 17.1736 149.627 17.6972 149.477 18.2684L154.271 18.146C154.244 17.9148 154.19 17.67 154.108 17.4116C154.026 17.1396 153.924 16.8812 153.802 16.6364C153.68 16.3916 153.537 16.1604 153.374 15.9428C153.21 15.7252 153.027 15.5484 152.823 15.4124C152.564 15.2356 152.292 15.1472 152.007 15.1472C151.816 15.1472 151.619 15.1812 151.415 15.2492C151.225 15.3172 151.055 15.426 150.905 15.5756Z" fill="#590209"/>
</svg>
