<svg width="15" height="15" viewBox="0 0 15 15" fill="none" xmlns="http://www.w3.org/2000/svg">
<path fill-rule="evenodd" clip-rule="evenodd" d="M11.3696 10.2436C12.3594 8.96748 12.8259 7.3622 12.6742 5.75433C12.5225 4.14647 11.7639 2.6568 10.5528 1.58839C9.34167 0.519983 7.76903 -0.0469099 6.1548 0.00304145C4.54056 0.0529928 3.00598 0.716036 1.86326 1.85728C0.719539 2.99932 0.0543281 4.53449 0.00318319 6.14995C-0.0479618 7.76542 0.518809 9.3396 1.588 10.5517C2.65718 11.7638 4.14832 12.5226 5.75754 12.6734C7.36676 12.8243 8.97294 12.3559 10.2488 11.3636L10.2829 11.3994L13.6501 14.7674C13.7239 14.8411 13.8115 14.8996 13.9078 14.9395C14.0042 14.9795 14.1075 15 14.2118 15C14.316 15 14.4193 14.9795 14.5157 14.9395C14.612 14.8996 14.6996 14.8411 14.7734 14.7674C14.8471 14.6936 14.9056 14.6061 14.9455 14.5097C14.9854 14.4134 15.006 14.3101 15.006 14.2058C15.006 14.1015 14.9854 13.9982 14.9455 13.9018C14.9056 13.8055 14.8471 13.7179 14.7734 13.6442L11.4053 10.2769C11.3937 10.2655 11.3818 10.2544 11.3696 10.2436ZM9.72171 2.98049C10.1699 3.42142 10.5263 3.94672 10.7705 4.52609C11.0146 5.10546 11.1416 5.72744 11.1442 6.35615C11.1467 6.98485 11.0248 7.60784 10.7854 8.18918C10.546 8.77052 10.1938 9.29871 9.74925 9.74328C9.30469 10.1878 8.7765 10.54 8.19516 10.7794C7.61382 11.0188 6.99083 11.1408 6.36212 11.1382C5.73342 11.1356 5.11144 11.0086 4.53207 10.7645C3.95269 10.5203 3.42739 10.1639 2.98646 9.71574C2.1053 8.8201 1.61374 7.61256 1.61885 6.35615C1.62397 5.09973 2.12535 3.89623 3.01378 3.0078C3.9022 2.11937 5.1057 1.61799 6.36212 1.61288C7.61854 1.60776 8.82608 2.09932 9.72171 2.98049Z" fill="#3E3E3E"/>
</svg>
