<svg width="159" height="159" viewBox="0 0 159 159" fill="none" xmlns="http://www.w3.org/2000/svg">
<g clip-path="url(#clip0_166_166)">
<path d="M141.917 104.634C144.936 97.0006 143.109 87.0512 136.166 82.6773C133.251 80.8435 129.55 79.9571 127.576 77.1362C123.196 70.172 131.643 57.5832 130.579 48.5162C131.042 33.125 125.61 26.2761 106.807 24.9272C88.0038 23.5784 75.8654 34.8568 71.5963 37.3491C62.2405 42.8107 50.0677 36.994 39.6174 39.8348C30.3199 42.3602 23.785 52.4952 25.3207 62.01C26.5728 69.7599 32.4094 76.9123 30.8658 84.6092C26.7715 98.6542 4.40687 105.86 22.9158 122.467C32.5883 129.304 45.1758 126.944 56.3151 127.583C64.3141 128.069 72.1157 130.138 79.9464 131.839C95.8584 136.079 113.51 135.501 124.921 122.337C131.249 116.474 138.513 113.238 141.917 104.634Z" fill="#FFDBBC"/>
<path d="M33.6059 119.523C27.3784 123.938 66.7163 83.7135 66.7163 83.7135C66.7163 83.7135 86.4655 91.3018 80.385 97.3875C80.385 97.3875 57.3168 120.764 51.5782 124.047C45.8396 127.329 62.373 112.016 57.6626 115.132C52.9522 118.248 64.0226 105.152 61.0321 107.108C58.0416 109.063 59.0883 105.34 61.1646 102.914C65.4046 98.6741 68.0453 95.5643 70.637 93.1952L70.5456 93.1051C68.2043 95.6226 64.2346 99.6427 61.0983 102.992C47.4959 117.52 55.2127 104.554 52.9098 105.815C50.607 107.075 53.2663 102.509 52.1466 103.594C51.027 104.679 39.8347 115.109 33.6059 119.523Z" fill="#FDD24C" stroke="#C69A1E" stroke-width="3" stroke-miterlimit="10"/>
<path d="M78.5341 117.834L76.5466 115.853C81.954 111.047 89.582 101.997 89.8602 95.2807L104.336 80.8091C104.991 81.4643 105.88 81.8324 106.807 81.8324C107.734 81.8324 108.623 81.4643 109.278 80.8091L109.888 81.4186C110.292 81.823 110.613 82.3032 110.832 82.8316C111.051 83.3601 111.164 83.9265 111.164 84.4985C111.164 85.0706 111.051 85.637 110.832 86.1654C110.613 86.6939 110.292 87.1741 109.888 87.5785L96.0254 101.441L78.5341 117.834Z" fill="#99D9F6" stroke="#3D9FC1" stroke-width="4" stroke-miterlimit="10"/>
<path d="M107.26 80.5017C109.329 82.57 110.822 84.3813 108.094 87.719L79.0933 116.339L78.2983 115.544C86.5451 107.226 92.5076 99.1948 90.5029 92.5062L107.26 80.5017Z" stroke="#3D9FC1" stroke-width="2.22" stroke-miterlimit="10" stroke-linecap="round" stroke-dasharray="2.22 24.42"/>
<path d="M46.3406 85.64L48.3215 87.6209C53.1325 82.2149 62.177 74.5869 68.9 74.3086L83.475 59.723C83.1656 59.4137 82.9201 59.0464 82.7526 58.6422C82.5851 58.238 82.4989 57.8047 82.4989 57.3672C82.4989 56.9296 82.5851 56.4964 82.7526 56.0922C82.9201 55.6879 83.1656 55.3207 83.475 55.0113L82.7503 54.2866C82.3458 53.882 81.8657 53.5612 81.3372 53.3422C80.8087 53.1233 80.2423 53.0106 79.6703 53.0106C79.0983 53.0106 78.5319 53.1233 78.0034 53.3422C77.4749 53.5612 76.9948 53.882 76.5903 54.2866L62.7335 68.1487L46.3406 85.64Z" fill="#99D9F6" stroke="#3D9FC1" stroke-width="4" stroke-miterlimit="10"/>
<path d="M83.5425 56.7842C81.1575 55.1213 79.4191 53.0186 76.3252 55.9508L47.7 84.9511L48.495 85.7461C56.812 77.4979 64.8428 71.5354 71.5314 73.5375L83.5425 56.7842Z" stroke="#3D9FC1" stroke-width="2.22" stroke-miterlimit="10" stroke-linecap="round" stroke-dasharray="2.22 24.42"/>
<path d="M64.9346 83.0487L81.013 99.1271C80.7175 99.4226 80.3168 99.5886 79.899 99.5886C79.4812 99.5886 79.0805 99.4226 78.785 99.1271L64.9346 85.2767C64.6391 84.9812 64.4731 84.5805 64.4731 84.1627C64.4731 83.7449 64.6391 83.3442 64.9346 83.0487Z" fill="#99D9F6" stroke="#3D9FC1" stroke-width="4" stroke-miterlimit="10"/>
<path d="M107.202 82.5263L93.3649 92.807L82.6522 100.765L63.4517 81.5657L68.9491 74.1669L71.4109 70.8544L81.6916 57.0174C82.9769 55.2856 84.8345 53.2756 87.1427 51.247L87.295 51.1145C92.7116 46.3896 100.545 41.5745 109.29 39.86C110.165 39.6877 111.051 39.53 111.94 39.3843C118.707 38.2739 125.389 37.9268 125.853 38.3826C126.316 38.8384 125.794 44.8526 124.528 51.9572C124.386 52.7522 124.233 53.5711 124.072 54.3926C122.328 63.2595 117.509 71.4758 112.837 77.0381C110.84 79.3927 108.885 81.2755 107.202 82.5263Z" fill="#E4F7FF" stroke="#81C4DB" stroke-width="4" stroke-miterlimit="10"/>
<path d="M85.6705 61.2627L73.7455 73.1877L71.4175 70.853L81.6968 57.0161C82.9834 55.2843 84.8411 53.2756 87.1492 51.2457C88.0122 52.852 88.335 54.6936 88.0699 56.4977C87.8048 58.3018 86.9658 59.9726 85.6771 61.2627H85.6705Z" fill="#99D9F6" stroke="#3D9FC1" stroke-width="4" stroke-miterlimit="10"/>
<path d="M107.201 82.5263L93.3636 92.807L91.1111 90.5465L103.036 78.6215C104.296 77.3632 105.919 76.5327 107.676 76.2473C109.434 75.962 111.236 76.2363 112.829 77.0315C110.84 79.3927 108.885 81.2755 107.201 82.5263Z" fill="#99D9F6" stroke="#3D9FC1" stroke-width="4" stroke-miterlimit="10"/>
<path d="M107.77 64.77C105.837 64.7687 103.963 64.0971 102.469 62.8696C100.976 61.6422 99.9535 59.9347 99.5772 58.0382C99.201 56.1416 99.494 54.1733 100.406 52.4685C101.318 50.7637 102.793 49.428 104.58 48.6887C106.367 47.9495 108.354 47.8526 110.204 48.4145C112.054 48.9763 113.653 50.1622 114.726 51.7702C115.8 53.3781 116.283 55.3086 116.093 57.2327C115.903 59.1569 115.052 60.9557 113.685 62.3227C112.91 63.1011 111.988 63.7181 110.972 64.1382C109.957 64.5582 108.869 64.7729 107.77 64.77Z" fill="#99D9F6"/>
<path d="M107.77 48.3016C109.645 48.3028 111.461 48.9539 112.909 50.144C114.357 51.3341 115.348 52.9895 115.712 54.8282C116.077 56.6668 115.793 58.575 114.908 60.2276C114.023 61.8802 112.593 63.175 110.861 63.8913C109.129 64.6077 107.202 64.7012 105.408 64.1561C103.615 63.611 102.066 62.461 101.025 60.9019C99.9848 59.3428 99.517 57.4711 99.7017 55.6058C99.8863 53.7404 100.712 51.9968 102.038 50.672C102.79 49.9189 103.684 49.3218 104.668 48.915C105.651 48.5082 106.706 48.2998 107.77 48.3016ZM107.77 47.7716C105.775 47.7735 103.843 48.4669 102.302 49.7336C100.761 51.0003 99.7074 52.762 99.3197 54.7186C98.932 56.6752 99.2346 58.7057 100.176 60.4642C101.117 62.2228 102.639 63.6006 104.482 64.363C106.326 65.1254 108.376 65.2252 110.285 64.6455C112.193 64.0657 113.842 62.8423 114.95 61.1835C116.057 59.5247 116.556 57.5332 116.36 55.5482C116.164 53.5631 115.286 51.7074 113.876 50.297C113.075 49.4933 112.124 48.8563 111.076 48.4228C110.028 47.9894 108.904 47.768 107.77 47.7716Z" fill="#3D9FC1"/>
<path d="M107.77 63.7166C106.627 63.7171 105.5 63.4495 104.478 62.9355C103.457 62.4215 102.571 61.6752 101.89 60.7567C101.21 59.8381 100.754 58.7728 100.56 57.6463C100.365 56.5197 100.438 55.3633 100.771 54.2698C101.104 53.1763 101.689 52.1762 102.479 51.3496C103.269 50.5231 104.242 49.8933 105.319 49.5106C106.396 49.1279 107.548 49.003 108.682 49.1461C109.816 49.2891 110.901 49.696 111.85 50.3341C112.118 50.515 112.374 50.7133 112.616 50.9277C112.726 51.0244 112.836 51.1278 112.943 51.2351C114.288 52.5717 115.059 54.3801 115.093 56.2762C115.126 58.1723 114.419 60.0067 113.122 61.3899C113.065 61.4522 113.004 61.5158 112.942 61.578C112.779 61.741 112.608 61.896 112.435 62.0391C111.123 63.1242 109.473 63.7174 107.77 63.7166Z" fill="#BAECFA"/>
<path d="M107.77 49.3536C109.492 49.3496 111.154 49.9792 112.441 51.1225C112.548 51.2165 112.653 51.3159 112.756 51.4193C114.047 52.7106 114.787 54.4526 114.819 56.2784C114.851 58.1041 114.173 59.8711 112.928 61.207C112.873 61.2693 112.815 61.3289 112.755 61.3886C112.597 61.5449 112.434 61.6946 112.267 61.8324C111.396 62.5545 110.364 63.0563 109.257 63.2952C108.151 63.5342 107.004 63.5034 105.912 63.2054C104.82 62.9075 103.817 62.3511 102.985 61.5833C102.154 60.8155 101.52 59.8588 101.136 58.7942C100.752 57.7296 100.63 56.5882 100.781 55.4666C100.931 54.345 101.35 53.2761 102 52.3502C102.651 51.4243 103.515 50.6686 104.519 50.147C105.523 49.6255 106.639 49.3533 107.77 49.3536ZM107.77 48.8236C106.554 48.8231 105.355 49.1156 104.275 49.6762C103.195 50.2368 102.267 51.049 101.567 52.0443C100.867 53.0396 100.418 54.1887 100.256 55.3945C100.094 56.6003 100.225 57.8273 100.637 58.9718C101.05 60.1164 101.732 61.1448 102.625 61.9703C103.519 62.7957 104.598 63.3938 105.772 63.7142C106.946 64.0345 108.179 64.0676 109.368 63.8106C110.557 63.5537 111.667 63.0142 112.604 62.2379C112.783 62.0908 112.959 61.9292 113.134 61.7609C113.205 61.6893 113.266 61.6284 113.323 61.5621C114.661 60.1261 115.388 58.2271 115.353 56.2652C115.318 54.3033 114.523 52.4316 113.135 51.0443C113.024 50.9343 112.91 50.827 112.796 50.725C112.544 50.5038 112.279 50.2989 112.001 50.1115C110.752 49.2697 109.279 48.8211 107.773 48.8236H107.77Z" fill="#3D9FC1"/>
<g style="mix-blend-mode:soft-light">
<path d="M112.758 61.3886C112.6 61.5449 112.437 61.6947 112.27 61.8325C111.064 61.5004 109.993 60.7965 109.21 59.8208C108.427 58.8452 107.971 57.6475 107.908 56.3981C107.844 55.1486 108.176 53.9109 108.857 52.8611C109.537 51.8112 110.531 51.0025 111.698 50.5501C111.956 50.7243 112.203 50.9155 112.436 51.1225C112.543 51.2166 112.648 51.3159 112.751 51.4193C114.042 52.7106 114.782 54.4526 114.814 56.2784C114.846 58.1041 114.168 59.8711 112.923 61.2071C112.873 61.2693 112.815 61.329 112.758 61.3886Z" fill="#D3EDF2"/>
</g>
<path d="M124.512 51.9519C121.263 46.9165 116.977 42.6316 111.941 39.383C118.708 38.2726 125.39 37.9255 125.854 38.3813C126.318 38.8371 125.782 44.8473 124.512 51.9519Z" fill="#99D9F6" stroke="#3D9FC1" stroke-width="4" stroke-miterlimit="10"/>
<path d="M112.568 75.1924L112.465 75.2971L112.32 75.2679" stroke="#3D9FC1" stroke-width="2.22" stroke-miterlimit="10" stroke-linecap="round"/>
<path d="M109.058 74.9208C107.13 74.9341 105.45 75.4097 103.706 76.4326L91.1096 89.0294" stroke="#3D9FC1" stroke-width="2.22" stroke-miterlimit="10" stroke-linecap="round" stroke-dasharray="2.25 24.79"/>
<path d="M89.9489 90.1914L89.8442 90.2948L89.9489 90.3994" stroke="#3D9FC1" stroke-width="2.22" stroke-miterlimit="10" stroke-linecap="round"/>
<path d="M92.0145 92.4651L92.1179 92.5685L91.9973 92.6519" stroke="#3D9FC1" stroke-width="2.22" stroke-miterlimit="10" stroke-linecap="round"/>
<path d="M89.0533 94.666L84.1018 98.0527" stroke="#3D9FC1" stroke-width="2.22" stroke-miterlimit="10" stroke-linecap="round" stroke-dasharray="2.45 26.92"/>
<path d="M82.6309 99.0583L82.509 99.1418L82.4043 99.0385" stroke="#3D9FC1" stroke-width="2.22" stroke-miterlimit="10" stroke-linecap="round"/>
<path d="M80.0711 96.7038L65.9639 82.5965" stroke="#3D9FC1" stroke-width="2.22" stroke-miterlimit="10" stroke-linecap="round" stroke-dasharray="2.26 24.91"/>
<path d="M64.7965 81.4292L64.6931 81.3259L64.7819 81.2093" stroke="#3D9FC1" stroke-width="2.22" stroke-miterlimit="10" stroke-linecap="round"/>
<path d="M66.8184 78.5619L70.2422 74.1112" stroke="#3D9FC1" stroke-width="2.22" stroke-miterlimit="10" stroke-linecap="round" stroke-dasharray="2.29 25.2"/>
<path d="M71.2612 72.7876L71.35 72.671L71.4547 72.7756" stroke="#3D9FC1" stroke-width="2.22" stroke-miterlimit="10" stroke-linecap="round"/>
<path d="M73.5574 74.8784L73.662 74.9831L73.7654 74.8784" stroke="#3D9FC1" stroke-width="2.22" stroke-miterlimit="10" stroke-linecap="round"/>
<path d="M76.1875 72.455L88.5564 60.0874C89.6164 57.7766 89.729 55.5824 89.3872 53.2769" stroke="#3D9FC1" stroke-width="2.22" stroke-miterlimit="10" stroke-linecap="round" stroke-dasharray="2.35 25.86"/>
<path d="M89.0705 51.5942L89.04 51.4498L89.1447 51.3464" stroke="#3D9FC1" stroke-width="2.22" stroke-miterlimit="10" stroke-linecap="round"/>
<path d="M91.6648 49.29C97.5213 45.1335 107.52 41.1704 111.945 40.7716C116.242 44.0467 120.081 47.8837 123.357 52.1798C122.927 56.9498 118.17 68.3965 113.647 73.9721" stroke="#3D9FC1" stroke-width="2.22" stroke-miterlimit="10" stroke-linecap="round" stroke-dasharray="2.24 24.62"/>
<path d="M86.219 55.0564C86.4465 55.0564 86.631 54.8719 86.631 54.6443C86.631 54.4167 86.4465 54.2322 86.219 54.2322C85.9914 54.2322 85.8069 54.4167 85.8069 54.6443C85.8069 54.8719 85.9914 55.0564 86.219 55.0564Z" fill="#3D9FC1"/>
<path d="M73.4619 71.4387C73.6895 71.4387 73.874 71.2542 73.874 71.0266C73.874 70.7991 73.6895 70.6146 73.4619 70.6146C73.2343 70.6146 73.0498 70.7991 73.0498 71.0266C73.0498 71.2542 73.2343 71.4387 73.4619 71.4387Z" fill="#3D9FC1"/>
<path d="M109.591 78.4294C109.818 78.4294 110.003 78.2449 110.003 78.0173C110.003 77.7897 109.818 77.6053 109.591 77.6053C109.363 77.6053 109.179 77.7897 109.179 78.0173C109.179 78.2449 109.363 78.4294 109.591 78.4294Z" fill="#3D9FC1"/>
<path d="M93.2085 91.1852C93.4361 91.1852 93.6205 91.0007 93.6205 90.7731C93.6205 90.5455 93.4361 90.361 93.2085 90.361C92.9809 90.361 92.7964 90.5455 92.7964 90.7731C92.7964 91.0007 92.9809 91.1852 93.2085 91.1852Z" fill="#3D9FC1"/>
<path d="M96.3275 67.8519C96.0609 67.5855 95.6994 67.4358 95.3225 67.4358C94.9456 67.4358 94.5841 67.5855 94.3175 67.8519L78.3751 83.7904L61.9822 101.28L62.8925 102.191L80.3824 85.7977L96.3275 69.862C96.5936 69.5952 96.7431 69.2338 96.7431 68.8569C96.7431 68.4801 96.5936 68.1187 96.3275 67.8519Z" fill="#99D9F6" stroke="#3D9FC1" stroke-width="4" stroke-miterlimit="10"/>
<path d="M95.135 69.0391L63.1018 101.072" stroke="#3D9FC1" stroke-width="2.22" stroke-miterlimit="10" stroke-linecap="round" stroke-dasharray="2.22 24.42"/>
<path d="M114.8 40.064L114.677 39.9832L114.824 39.9713" stroke="#3D9FC1" stroke-width="2.22" stroke-miterlimit="10" stroke-linecap="round"/>
<path d="M117.987 39.7142L123.307 39.2796" stroke="#3D9FC1" stroke-width="2.22" stroke-miterlimit="10" stroke-linecap="round" stroke-dasharray="2.18 23.95"/>
<path d="M124.888 39.1511L125.035 39.1392L125.019 39.2849" stroke="#3D9FC1" stroke-width="2.22" stroke-miterlimit="10" stroke-linecap="round"/>
<path d="M124.681 42.3669L124.114 47.5476" stroke="#3D9FC1" stroke-width="2.22" stroke-miterlimit="10" stroke-linecap="round" stroke-dasharray="2.13 23.39"/>
<path d="M123.945 49.0886L123.929 49.2343L123.849 49.1124" stroke="#3D9FC1" stroke-width="2.22" stroke-miterlimit="10" stroke-linecap="round"/>
<path d="M122.067 46.6824C120.302 44.523 118.276 42.5906 116.036 40.9293" stroke="#3D9FC1" stroke-width="2.22" stroke-miterlimit="10" stroke-linecap="round" stroke-dasharray="2.07 22.74"/>
<path d="M110.791 54.0229H104.756" stroke="white" stroke-width="1.11" stroke-miterlimit="10" stroke-linecap="round"/>
<path d="M111.978 56.5921H103.941" stroke="white" stroke-width="1.11" stroke-miterlimit="10" stroke-linecap="round"/>
<path d="M111.24 59.1626H105.051" stroke="white" stroke-width="1.11" stroke-miterlimit="10" stroke-linecap="round"/>
<path d="M103.077 70.5775C103.048 70.5775 103.019 70.5718 102.992 70.5606C102.965 70.5495 102.941 70.5331 102.921 70.5125L93.7013 61.2932C93.6808 61.2728 93.6646 61.2485 93.6535 61.2218C93.6424 61.1951 93.6367 61.1664 93.6367 61.1375C93.6367 61.1086 93.6424 61.0799 93.6535 61.0532C93.6646 61.0265 93.6808 61.0022 93.7013 60.9818L95.0449 59.6383C95.0652 59.6176 95.0894 59.6012 95.1162 59.5901C95.1429 59.5789 95.1716 59.5731 95.2005 59.5731C95.2295 59.5731 95.2582 59.5789 95.2849 59.5901C95.3116 59.6012 95.3359 59.6176 95.3562 59.6383L104.577 68.8576C104.597 68.878 104.614 68.9023 104.625 68.929C104.636 68.9557 104.641 68.9844 104.641 69.0133C104.641 69.0422 104.636 69.0709 104.625 69.0976C104.614 69.1243 104.597 69.1486 104.577 69.169L103.233 70.5125C103.213 70.5333 103.189 70.5497 103.162 70.5609C103.135 70.572 103.106 70.5776 103.077 70.5775Z" fill="#80BFA3"/>
<path d="M95.2013 59.7933L104.421 69.0139L103.077 70.3575L93.8577 61.1368L95.2013 59.7933ZM95.2013 59.352C95.143 59.3523 95.0853 59.3642 95.0316 59.3869C94.978 59.4096 94.9293 59.4428 94.8886 59.4845L93.545 60.8254C93.5041 60.8664 93.4715 60.9151 93.4494 60.9686C93.4272 61.0221 93.4158 61.0795 93.4158 61.1375C93.4158 61.1954 93.4272 61.2528 93.4494 61.3064C93.4715 61.3599 93.5041 61.4085 93.545 61.4495L102.766 70.6689C102.806 70.71 102.855 70.7426 102.908 70.7649C102.962 70.7871 103.019 70.7986 103.077 70.7986C103.135 70.7986 103.192 70.7871 103.246 70.7649C103.299 70.7426 103.348 70.71 103.388 70.6689L104.732 69.3253C104.773 69.2845 104.806 69.2359 104.828 69.1824C104.851 69.1288 104.862 69.0713 104.862 69.0133C104.862 68.9552 104.851 68.8978 104.828 68.8442C104.806 68.7906 104.773 68.742 104.732 68.7012L95.5127 59.4819C95.4721 59.4403 95.4237 59.4072 95.3702 59.3845C95.3168 59.3618 95.2594 59.3498 95.2013 59.3494V59.352Z" fill="#590209"/>
<path d="M45.3933 114.907C46.0558 114.679 46.2519 115.563 43.7503 117.138C41.2487 118.713 44.4803 115.221 45.3933 114.907Z" fill="#FDD24C" stroke="#C69A1E" stroke-width="3" stroke-miterlimit="10"/>
<path d="M54.7807 111.923C55.6433 111.513 55.7281 112.585 52.3229 115.027C48.9176 117.469 53.5856 112.493 54.7807 111.923Z" fill="#FDD24C" stroke="#C69A1E" stroke-width="2.78" stroke-miterlimit="10"/>
<path d="M77.4755 103.241C77.596 102.661 76.9455 102.641 75.9756 104.964C75.0057 107.287 77.3085 104.047 77.4755 103.241Z" fill="#FDD24C" stroke="#C69A1E" stroke-width="2.78" stroke-miterlimit="10"/>
<path d="M60.8638 86.7636C61.2467 86.3105 60.6849 85.9832 58.7252 87.5586C56.7655 89.1341 60.3338 87.3917 60.8638 86.7636Z" fill="#FDD24C" stroke="#C69A1E" stroke-width="2.78" stroke-miterlimit="10"/>
<path d="M90.5479 38.3402L88.8479 39.9302C88.8102 39.965 88.783 40.0097 88.7696 40.0593C88.7561 40.1088 88.7569 40.1612 88.7718 40.2103C88.7868 40.2594 88.8153 40.3033 88.854 40.337C88.8928 40.3706 88.9403 40.3927 88.991 40.4006H89.0003C89.0472 40.4101 89.0957 40.4083 89.1417 40.3954C89.1878 40.3825 89.2302 40.3588 89.2653 40.3264L95.1046 34.8475C95.1356 34.8205 95.1599 34.7867 95.1756 34.7487C95.1913 34.7107 95.1979 34.6695 95.1949 34.6285C95.192 34.5875 95.1795 34.5478 95.1585 34.5124C95.1376 34.4771 95.1087 34.4471 95.0741 34.4248C95.018 34.3858 94.9502 34.3671 94.8819 34.3719C94.8137 34.3767 94.7492 34.4047 94.6991 34.4513L92.277 36.7197" fill="#80BFA3"/>
<path d="M90.5479 38.3402L88.8479 39.9302C88.8102 39.965 88.783 40.0097 88.7696 40.0593C88.7561 40.1088 88.7569 40.1612 88.7718 40.2103C88.7868 40.2594 88.8153 40.3033 88.854 40.337C88.8928 40.3706 88.9403 40.3927 88.991 40.4006H89.0003C89.0472 40.4101 89.0957 40.4083 89.1417 40.3954C89.1878 40.3825 89.2302 40.3588 89.2653 40.3264L95.1046 34.8475C95.1356 34.8205 95.1599 34.7867 95.1756 34.7487C95.1913 34.7107 95.1979 34.6695 95.1949 34.6285C95.192 34.5875 95.1795 34.5478 95.1585 34.5124C95.1376 34.4771 95.1087 34.4471 95.0741 34.4248C95.018 34.3858 94.9502 34.3671 94.8819 34.3719C94.8137 34.3767 94.7492 34.4047 94.6991 34.4513L92.277 36.7197" stroke="#590209" stroke-width="1.11" stroke-linecap="round" stroke-linejoin="round"/>
<path d="M35.7181 98.8622L38.123 96.5501C38.1535 96.5227 38.1772 96.4886 38.1923 96.4505C38.2074 96.4124 38.2135 96.3713 38.21 96.3305C38.2065 96.2897 38.1936 96.2502 38.1723 96.2152C38.151 96.1802 38.1219 96.1506 38.0872 96.1287C38.0304 96.09 37.962 96.0721 37.8934 96.0778C37.8249 96.0836 37.7605 96.1128 37.7109 96.1605L35.3259 98.4674" fill="#80BFA3"/>
<path d="M35.7181 98.8622L38.123 96.5501C38.1535 96.5227 38.1772 96.4886 38.1923 96.4505C38.2074 96.4124 38.2135 96.3713 38.21 96.3305C38.2065 96.2897 38.1936 96.2502 38.1723 96.2152C38.151 96.1802 38.1219 96.1506 38.0872 96.1287C38.0304 96.09 37.962 96.0721 37.8934 96.0778C37.8249 96.0836 37.7605 96.1128 37.7109 96.1605L35.3259 98.4674" stroke="#590209" stroke-width="1.11" stroke-linecap="round" stroke-linejoin="round"/>
<path d="M107.521 103.322L109.641 101.108C109.674 101.083 109.7 101.051 109.718 101.015C109.737 100.978 109.746 100.938 109.746 100.897C109.746 100.856 109.737 100.815 109.718 100.779C109.7 100.742 109.674 100.71 109.641 100.685C109.588 100.642 109.521 100.619 109.453 100.619C109.384 100.619 109.318 100.642 109.265 100.685L99.8571 110.467C99.8169 110.498 99.7864 110.541 99.7692 110.589C99.752 110.637 99.7488 110.69 99.7598 110.74C99.7709 110.79 99.7958 110.836 99.8318 110.872C99.8677 110.909 99.9132 110.934 99.9631 110.946H99.9724C100.018 110.958 100.065 110.96 100.111 110.95C100.157 110.941 100.2 110.921 100.237 110.892L104.864 106.077" fill="#80BFA3"/>
<path d="M107.521 103.322L109.641 101.108C109.674 101.083 109.7 101.051 109.718 101.015C109.737 100.978 109.746 100.938 109.746 100.897C109.746 100.856 109.737 100.815 109.718 100.779C109.7 100.742 109.674 100.71 109.641 100.685C109.588 100.642 109.521 100.619 109.453 100.619C109.384 100.619 109.318 100.642 109.265 100.685L99.8571 110.467C99.8169 110.498 99.7864 110.541 99.7692 110.589C99.752 110.637 99.7488 110.69 99.7598 110.74C99.7709 110.79 99.7958 110.836 99.8318 110.872C99.8677 110.909 99.9132 110.934 99.9631 110.946H99.9724C100.018 110.958 100.065 110.96 100.111 110.95C100.157 110.941 100.2 110.921 100.237 110.892L104.864 106.077" stroke="#590209" stroke-width="1.11" stroke-linecap="round" stroke-linejoin="round"/>
<path d="M90.5479 38.3402L88.8479 39.9302C88.8102 39.965 88.783 40.0097 88.7696 40.0593C88.7561 40.1088 88.7569 40.1612 88.7718 40.2103C88.7868 40.2594 88.8153 40.3033 88.854 40.337C88.8928 40.3706 88.9403 40.3927 88.991 40.4006H89.0003C89.0472 40.4101 89.0957 40.4083 89.1417 40.3954C89.1878 40.3825 89.2302 40.3588 89.2653 40.3264L95.1046 34.8475C95.1356 34.8205 95.1599 34.7867 95.1756 34.7487C95.1913 34.7107 95.1979 34.6695 95.1949 34.6285C95.192 34.5875 95.1795 34.5478 95.1585 34.5124C95.1376 34.4771 95.1087 34.4471 95.0741 34.4248C95.018 34.3858 94.9502 34.3671 94.8819 34.3719C94.8137 34.3767 94.7492 34.4047 94.6991 34.4513L92.277 36.7197" fill="#80BFA3"/>
<path d="M90.5479 38.3402L88.8479 39.9302C88.8102 39.965 88.783 40.0097 88.7696 40.0593C88.7561 40.1088 88.7569 40.1612 88.7718 40.2103C88.7868 40.2594 88.8153 40.3033 88.854 40.337C88.8928 40.3706 88.9403 40.3927 88.991 40.4006H89.0003C89.0472 40.4101 89.0957 40.4083 89.1417 40.3954C89.1878 40.3825 89.2302 40.3588 89.2653 40.3264L95.1046 34.8475C95.1356 34.8205 95.1599 34.7867 95.1756 34.7487C95.1913 34.7107 95.1979 34.6695 95.1949 34.6285C95.192 34.5875 95.1795 34.5478 95.1585 34.5124C95.1376 34.4771 95.1087 34.4471 95.0741 34.4248C95.018 34.3858 94.9502 34.3671 94.8819 34.3719C94.8137 34.3767 94.7492 34.4047 94.6991 34.4513L92.277 36.7197" stroke="#590209" stroke-width="1.11" stroke-linecap="round" stroke-linejoin="round"/>
<path d="M35.7181 98.8622L38.123 96.5501C38.1535 96.5227 38.1772 96.4886 38.1923 96.4505C38.2074 96.4124 38.2135 96.3713 38.21 96.3305C38.2065 96.2897 38.1936 96.2502 38.1723 96.2152C38.151 96.1802 38.1219 96.1506 38.0872 96.1287C38.0304 96.09 37.962 96.0721 37.8934 96.0778C37.8249 96.0836 37.7605 96.1128 37.7109 96.1605L35.3259 98.4674" fill="#80BFA3"/>
<path d="M35.7181 98.8622L38.123 96.5501C38.1535 96.5227 38.1772 96.4886 38.1923 96.4505C38.2074 96.4124 38.2135 96.3713 38.21 96.3305C38.2065 96.2897 38.1936 96.2502 38.1723 96.2152C38.151 96.1802 38.1219 96.1506 38.0872 96.1287C38.0304 96.09 37.962 96.0721 37.8934 96.0778C37.8249 96.0836 37.7605 96.1128 37.7109 96.1605L35.3259 98.4674" stroke="#590209" stroke-width="1.11" stroke-linecap="round" stroke-linejoin="round"/>
<path d="M107.521 103.322L109.641 101.108C109.674 101.083 109.7 101.051 109.718 101.015C109.737 100.978 109.746 100.938 109.746 100.897C109.746 100.856 109.737 100.815 109.718 100.779C109.7 100.742 109.674 100.71 109.641 100.685C109.588 100.642 109.521 100.619 109.453 100.619C109.384 100.619 109.318 100.642 109.265 100.685L99.8571 110.467C99.8169 110.498 99.7864 110.541 99.7692 110.589C99.752 110.637 99.7488 110.69 99.7598 110.74C99.7709 110.79 99.7958 110.836 99.8318 110.872C99.8677 110.909 99.9132 110.934 99.9631 110.946H99.9724C100.018 110.958 100.065 110.96 100.111 110.95C100.157 110.941 100.2 110.921 100.237 110.892L104.864 106.077" fill="#80BFA3"/>
<path d="M107.521 103.322L109.641 101.108C109.674 101.083 109.7 101.051 109.718 101.015C109.737 100.978 109.746 100.938 109.746 100.897C109.746 100.856 109.737 100.815 109.718 100.779C109.7 100.742 109.674 100.71 109.641 100.685C109.588 100.642 109.521 100.619 109.453 100.619C109.384 100.619 109.318 100.642 109.265 100.685L99.8571 110.467C99.8169 110.498 99.7864 110.541 99.7692 110.589C99.752 110.637 99.7488 110.69 99.7598 110.74C99.7709 110.79 99.7958 110.836 99.8318 110.872C99.8677 110.909 99.9132 110.934 99.9631 110.946H99.9724C100.018 110.958 100.065 110.96 100.111 110.95C100.157 110.941 100.2 110.921 100.237 110.892L104.864 106.077" stroke="#590209" stroke-width="1.11" stroke-linecap="round" stroke-linejoin="round"/>
<g style="mix-blend-mode:soft-light" opacity="0.7">
<path d="M126.027 38.1918C125.944 38.1083 125.731 37.8963 123.775 37.9175C122.385 37.9268 120.486 38.05 118.428 38.2607H118.405L118.091 38.2925C116.368 38.4687 114.583 38.698 112.859 38.963L112.583 39.0054L112.425 39.0305L111.895 39.1167C110.978 39.2664 110.085 39.4267 109.245 39.5923C99.0662 41.5865 91.1189 47.4443 87.2234 50.8257L87.2141 50.835C87.1836 50.8601 87.1518 50.8866 87.1227 50.9131L87.0511 50.9767L87.01 51.0138L86.9743 51.0443C86.3109 51.6291 85.678 52.2165 85.0756 52.8066L84.9987 52.8808C84.9629 52.9152 84.9298 52.9497 84.894 52.9854C84.5575 53.318 84.2315 53.6479 83.9175 53.9832C83.74 54.1713 83.5677 54.3595 83.3981 54.5463L82.9449 54.0998C82.0785 53.2334 80.9034 52.7467 79.6782 52.7467C78.4529 52.7467 77.2778 53.2334 76.4114 54.0998L62.5399 67.9725L45.9774 85.6467L48.3373 88.0065L48.5228 87.7972C53.8426 81.8121 62.1703 75.2772 68.2865 74.62L63.107 81.5909L64.5804 83.0629C64.3151 83.4158 64.1854 83.8523 64.2151 84.2928C64.2448 84.7333 64.4318 85.1484 64.7421 85.4625C61.7449 88.5286 55.5307 94.9283 49.4224 101.323C44.4669 106.506 40.5449 110.673 37.7783 113.706C32.4426 119.547 32.6281 119.764 32.8069 119.973C32.9858 120.183 33.2429 120.025 33.7252 119.683C39.6877 115.455 50.4202 105.512 52.1625 103.846C52.1321 103.948 52.0976 104.058 52.0658 104.157C51.8233 104.925 51.5491 105.796 51.9413 106.119C52.2328 106.358 52.6886 106.155 53.0013 105.987C53.0506 105.956 53.1048 105.935 53.1616 105.923C53.2464 106.101 53.0423 106.905 52.9072 107.442C52.6064 108.634 52.3229 109.751 52.8979 110.065C53.4478 110.366 54.7092 109.922 59.6713 104.778C59.0406 105.985 58.7544 107.145 59.1797 107.63C59.5229 108.019 60.1828 107.895 61.1421 107.272C61.2176 107.223 61.2746 107.187 61.3236 107.163C61.1116 107.717 60.0317 109.283 59.144 110.573C56.7338 114.073 55.9971 115.307 56.3893 115.706C56.6026 115.923 57.0041 115.804 57.7739 115.295C57.9223 115.197 58.0389 115.124 58.133 115.07C57.6229 115.752 56.2078 117.261 54.9331 118.622C51.035 122.782 49.8769 124.149 50.2254 124.584C50.257 124.624 50.2975 124.655 50.3437 124.675C50.3898 124.695 50.4401 124.704 50.4904 124.701C50.7262 124.701 51.0959 124.545 51.6829 124.212C54.0758 122.842 59.6594 117.934 68.2759 109.623C72.5053 105.543 76.4617 101.606 78.6811 99.3816C78.9967 99.665 79.4009 99.8302 79.8246 99.849C80.2484 99.8678 80.6656 99.7392 81.0051 99.485L82.4719 100.952L82.6323 101.113L89.5514 95.9737C88.8438 102.077 82.3421 110.359 76.3835 115.655L76.1742 115.841L78.534 118.201L96.2122 101.628L110.074 87.7654C110.941 86.8989 111.427 85.7238 111.427 84.4986C111.427 83.2733 110.941 82.0982 110.074 81.2318L109.646 80.8038C109.787 80.6713 109.927 80.5388 110.068 80.4063L110.129 80.348C111.08 79.4205 112.053 78.3605 113.018 77.2144L113.234 76.9573C116.025 73.5865 122.206 65.1542 124.311 54.4482C124.46 53.6983 124.599 52.9523 124.73 52.2275L124.77 52.0089C125.721 46.693 126.738 38.902 126.027 38.1918Z" fill="url(#paint0_linear_166_166)"/>
<path d="M45.3296 114.721C44.6074 114.97 42.6875 116.894 42.6252 117.431C42.617 117.482 42.6238 117.534 42.6447 117.581C42.6657 117.628 42.6999 117.668 42.7432 117.696C42.7905 117.726 42.8459 117.742 42.9022 117.741C43.0678 117.741 43.3341 117.631 43.8548 117.302C46.1868 115.833 46.0676 115.092 45.9748 114.9C45.8821 114.708 45.6211 114.62 45.3296 114.721Z" fill="url(#paint1_linear_166_166)"/>
<path d="M51.1636 115.884C51.3266 115.884 51.634 115.752 52.4303 115.177C54.5808 113.631 55.7256 112.345 55.4169 111.823C55.3731 111.749 55.1916 111.524 54.7027 111.756C53.86 112.153 50.9291 115.048 50.9172 115.633C50.9145 115.678 50.9248 115.722 50.9469 115.762C50.969 115.801 51.0019 115.833 51.0417 115.854C51.0791 115.874 51.1211 115.885 51.1636 115.884Z" fill="url(#paint2_linear_166_166)"/>
<path d="M77.4463 102.744C77.0289 102.612 76.4313 103.398 75.8059 104.891C75.5144 105.589 75.5118 105.777 75.6151 105.895C75.6358 105.919 75.6614 105.938 75.6903 105.952C75.7191 105.965 75.7504 105.971 75.7821 105.971C75.804 105.971 75.8258 105.968 75.847 105.963C76.279 105.849 77.5443 103.816 77.6556 103.28C77.7232 102.952 77.592 102.79 77.4463 102.744Z" fill="url(#paint3_linear_166_166)"/>
<path d="M58.1356 88.3775C58.1569 88.382 58.1787 88.3842 58.2005 88.3841C58.7451 88.3841 60.6663 87.2804 61.0042 86.8789C61.2188 86.6259 61.1817 86.4178 61.0744 86.3092C60.7697 85.9965 59.8713 86.4006 58.6099 87.4156C58.0203 87.8899 57.9302 88.0542 57.9646 88.2106C57.9746 88.2516 57.9959 88.289 58.0261 88.3186C58.0564 88.3481 58.0943 88.3685 58.1356 88.3775Z" fill="url(#paint4_linear_166_166)"/>
<path d="M88.9857 40.4774C89.0093 40.4816 89.0332 40.4838 89.0572 40.484C89.1517 40.4841 89.2427 40.4481 89.3116 40.3833L95.1549 34.9018C95.1925 34.8666 95.2218 34.8235 95.2408 34.7757C95.2598 34.7278 95.268 34.6763 95.2648 34.6249C95.2609 34.5735 95.2456 34.5236 95.2199 34.4789C95.1942 34.4342 95.1589 34.3958 95.1164 34.3665C95.0466 34.3174 94.9621 34.2938 94.8769 34.2996C94.7918 34.3054 94.7112 34.3402 94.6487 34.3983L92.2266 36.668C92.2196 36.6747 92.2141 36.6827 92.2103 36.6916C92.2065 36.7005 92.2045 36.7101 92.2045 36.7197C92.2045 36.7294 92.2065 36.7389 92.2103 36.7478C92.2141 36.7567 92.2196 36.7647 92.2266 36.7714L90.6008 38.2925C90.5941 38.2857 90.586 38.2803 90.5771 38.2766C90.5683 38.2729 90.5588 38.271 90.5492 38.271C90.5396 38.271 90.53 38.2729 90.5212 38.2766C90.5123 38.2803 90.5043 38.2857 90.4975 38.2925L88.7975 39.8825C88.7502 39.9256 88.7159 39.9811 88.6986 40.0427C88.6812 40.1043 88.6815 40.1695 88.6995 40.231C88.7197 40.2945 88.7572 40.3512 88.8077 40.3947C88.8582 40.4382 88.9198 40.4668 88.9857 40.4774Z" fill="url(#paint5_linear_166_166)"/>
<path d="M35.3775 98.5204L35.6676 98.8119C35.6543 98.8255 35.6468 98.8438 35.6468 98.8629C35.6468 98.882 35.6543 98.9003 35.6676 98.9139C35.6743 98.9213 35.6825 98.9271 35.6917 98.931C35.7008 98.9349 35.7107 98.9367 35.7206 98.9364C35.7397 98.9365 35.7581 98.9294 35.7723 98.9166L38.1759 96.6031C38.2134 96.5678 38.2425 96.5244 38.2609 96.4762C38.2792 96.428 38.2864 96.3762 38.2819 96.3249C38.2773 96.2737 38.2614 96.2241 38.2353 96.1799C38.2092 96.1356 38.1735 96.0978 38.1308 96.0691C38.0601 96.0211 37.9751 95.9988 37.8899 96.006C37.8047 96.0132 37.7246 96.0496 37.6631 96.1089L35.2781 98.4157C35.2713 98.4225 35.2659 98.4305 35.2622 98.4394C35.2585 98.4483 35.2566 98.4578 35.2566 98.4674C35.2566 98.477 35.2585 98.4865 35.2622 98.4954C35.2659 98.5042 35.2713 98.5123 35.2781 98.5191C35.2915 98.5315 35.3092 98.5386 35.3275 98.5388C35.3459 98.5391 35.3637 98.5325 35.3775 98.5204Z" fill="url(#paint6_linear_166_166)"/>
<path d="M109.222 100.631L99.815 110.406C99.7645 110.445 99.726 110.497 99.704 110.557C99.6819 110.617 99.6772 110.682 99.6904 110.745C99.7049 110.81 99.7374 110.87 99.7843 110.918C99.8311 110.966 99.8903 111 99.9554 111.016C99.9874 111.025 100.02 111.029 100.053 111.03C100.142 111.029 100.227 110.998 100.295 110.942L104.927 106.133C104.941 106.119 104.948 106.1 104.948 106.08C104.948 106.061 104.941 106.042 104.927 106.028L107.471 103.378C107.485 103.392 107.504 103.399 107.523 103.399C107.543 103.399 107.562 103.392 107.575 103.378L109.695 101.17C109.735 101.138 109.766 101.098 109.788 101.052C109.809 101.006 109.821 100.956 109.821 100.905C109.821 100.855 109.809 100.805 109.788 100.759C109.766 100.713 109.735 100.673 109.695 100.64C109.63 100.584 109.547 100.553 109.461 100.551C109.374 100.55 109.29 100.578 109.222 100.631Z" fill="url(#paint7_linear_166_166)"/>
</g>
</g>
<defs>
<linearGradient id="paint0_linear_166_166" x1="51.6378" y1="111.202" x2="129.173" y2="36.6495" gradientUnits="userSpaceOnUse">
<stop stop-color="#C57DB2"/>
<stop offset="1" stop-color="#56BC80"/>
</linearGradient>
<linearGradient id="paint1_linear_166_166" x1="50.6614" y1="110.187" x2="128.196" y2="35.6345" gradientUnits="userSpaceOnUse">
<stop stop-color="#C57DB2"/>
<stop offset="1" stop-color="#56BC80"/>
</linearGradient>
<linearGradient id="paint2_linear_166_166" x1="53.7036" y1="113.351" x2="131.239" y2="38.7986" gradientUnits="userSpaceOnUse">
<stop stop-color="#C57DB2"/>
<stop offset="1" stop-color="#56BC80"/>
</linearGradient>
<linearGradient id="paint3_linear_166_166" x1="60.1749" y1="120.081" x2="137.71" y2="45.5269" gradientUnits="userSpaceOnUse">
<stop stop-color="#C57DB2"/>
<stop offset="1" stop-color="#56BC80"/>
</linearGradient>
<linearGradient id="paint4_linear_166_166" x1="43.538" y1="102.778" x2="121.072" y2="28.2251" gradientUnits="userSpaceOnUse">
<stop stop-color="#C57DB2"/>
<stop offset="1" stop-color="#56BC80"/>
</linearGradient>
<linearGradient id="paint5_linear_166_166" x1="34.1386" y1="93.0031" x2="111.674" y2="18.4507" gradientUnits="userSpaceOnUse">
<stop stop-color="#C57DB2"/>
<stop offset="1" stop-color="#56BC80"/>
</linearGradient>
<linearGradient id="paint6_linear_166_166" x1="37.6286" y1="96.6323" x2="115.164" y2="22.0798" gradientUnits="userSpaceOnUse">
<stop stop-color="#C57DB2"/>
<stop offset="1" stop-color="#56BC80"/>
</linearGradient>
<linearGradient id="paint7_linear_166_166" x1="74.4531" y1="134.929" x2="151.987" y2="60.3763" gradientUnits="userSpaceOnUse">
<stop stop-color="#C57DB2"/>
<stop offset="1" stop-color="#56BC80"/>
</linearGradient>
<clipPath id="clip0_166_166">
<rect width="159" height="159" fill="white"/>
</clipPath>
</defs>
</svg>
