<svg width="24" height="24" viewBox="0 0 24 24" fill="none" xmlns="http://www.w3.org/2000/svg">
<path d="M22.0134 8.77964L5.20862 0.377231C4.54542 0.0471472 3.79655 -0.0703648 3.06412 0.0407164C2.3317 0.151798 1.65135 0.486066 1.11584 0.997948C0.580336 1.50983 0.21573 2.17441 0.0717369 2.90109C-0.0722564 3.62776 0.0113699 4.38116 0.311214 5.05857L3.19204 11.5044C3.25741 11.6603 3.29107 11.8276 3.29107 11.9966C3.29107 12.1656 3.25741 12.3329 3.19204 12.4887L0.311214 18.9345C0.0671844 19.4828 -0.0359785 20.0833 0.0111007 20.6815C0.0581799 21.2797 0.254008 21.8567 0.58079 22.36C0.907571 22.8633 1.35494 23.2769 1.88225 23.5633C2.40956 23.8498 3.00008 23.9999 3.60016 24C4.1622 23.9944 4.71586 23.8632 5.22062 23.6159L22.0254 15.2135C22.6215 14.9136 23.1226 14.454 23.4727 13.886C23.8228 13.318 24.0082 12.6638 24.0082 11.9966C24.0082 11.3293 23.8228 10.6752 23.4727 10.1071C23.1226 9.53909 22.6215 9.0795 22.0254 8.77964H22.0134ZM20.9451 13.0649L4.14031 21.4673C3.91964 21.5732 3.67185 21.6092 3.43017 21.5703C3.18849 21.5315 2.96446 21.4196 2.78814 21.2498C2.61181 21.08 2.49162 20.8604 2.44366 20.6203C2.39571 20.3803 2.42229 20.1313 2.51985 19.9068L5.38867 13.461C5.42581 13.3749 5.45787 13.2867 5.4847 13.1969H13.7551C14.0734 13.1969 14.3787 13.0704 14.6038 12.8453C14.8289 12.6202 14.9554 12.3149 14.9554 11.9966C14.9554 11.6782 14.8289 11.3729 14.6038 11.1478C14.3787 10.9227 14.0734 10.7962 13.7551 10.7962H5.4847C5.45787 10.7064 5.42581 10.6182 5.38867 10.5321L2.51985 4.08629C2.42229 3.86179 2.39571 3.61282 2.44366 3.37277C2.49162 3.13273 2.61181 2.91308 2.78814 2.74329C2.96446 2.57349 3.18849 2.46166 3.43017 2.4228C3.67185 2.38394 3.91964 2.41989 4.14031 2.52585L20.9451 10.9283C21.1417 11.029 21.3068 11.182 21.422 11.3705C21.5372 11.559 21.5982 11.7756 21.5982 11.9966C21.5982 12.2175 21.5372 12.4341 21.422 12.6226C21.3068 12.8111 21.1417 12.9641 20.9451 13.0649Z" fill="#0D0D0D"/>
</svg>
