<svg width="22" height="26" viewBox="0 0 22 26" fill="none" xmlns="http://www.w3.org/2000/svg">
<path d="M2.38889 19.1111H19.1111V10.787C19.1111 6.149 15.3677 2.38889 10.75 2.38889C6.13228 2.38889 2.38889 6.149 2.38889 10.787V19.1111ZM10.75 0C16.6864 0 21.5 4.82914 21.5 10.787V21.5H0V10.787C0 4.82914 4.81361 0 10.75 0ZM7.76389 22.6944H13.7361C13.7361 23.4864 13.4215 24.2459 12.8615 24.8059C12.3015 25.3659 11.542 25.6806 10.75 25.6806C9.95803 25.6806 9.1985 25.3659 8.6385 24.8059C8.0785 24.2459 7.76389 23.4864 7.76389 22.6944Z" fill="#0D0D0D"/>
</svg>
