<svg width="25" height="24" viewBox="0 0 25 24" fill="none" xmlns="http://www.w3.org/2000/svg">
<path d="M22.7857 13.7143H14.2143V22.2857C14.2143 23.2286 13.4429 24 12.5 24C11.5571 24 10.7857 23.2286 10.7857 22.2857V13.7143H2.21429C1.27143 13.7143 0.5 12.9429 0.5 12C0.5 11.0571 1.27143 10.2857 2.21429 10.2857H10.7857V1.71429C10.7857 0.771429 11.5571 0 12.5 0C13.4429 0 14.2143 0.771429 14.2143 1.71429V10.2857H22.7857C23.7286 10.2857 24.5 11.0571 24.5 12C24.5 12.9429 23.7286 13.7143 22.7857 13.7143Z" fill="#F8F8F8"/>
</svg>
